<svg width="32" height="47" viewBox="0 0 32 47" fill="none" xmlns="http://www.w3.org/2000/svg">
<path d="M22.8572 42.8214C25.3715 42.8214 27.4286 40.8944 27.4286 38.5393L27.4057 31.7307C27.4057 30.5959 26.9257 29.5254 26.08 28.7117L18.2857 21.4107L26.08 14.0668C26.9257 13.2746 27.4057 12.1827 27.4057 11.0479L27.4286 4.28214C27.4286 1.92696 25.3715 0 22.8572 0H4.57143C2.05715 0 0 1.92696 0 4.28214V11.0479C0 12.1827 0.48 13.2746 1.32572 14.0882L9.14287 21.4107L1.34857 28.6903C0.480001 29.5039 0 30.5959 0 31.7307V38.5393C0 40.8944 2.05715 42.8214 4.57143 42.8214H22.8572ZM4.57143 10.898V6.42321C4.57143 5.24562 5.60001 4.28214 6.85715 4.28214H20.5715C21.8286 4.28214 22.8572 5.24562 22.8572 6.42321V10.898C22.8572 11.4761 22.6057 12.0114 22.1943 12.4182L13.7143 20.3402L5.23429 12.3968C4.82286 12.0114 4.57143 11.4547 4.57143 10.898Z" fill="black"/>
<path d="M22.8571 29.2617C27.9131 29.2617 32 33.0985 32 37.826C32 42.562 27.9131 46.3903 22.8571 46.3903C17.8102 46.3903 13.7142 42.562 13.7142 37.826C13.7142 33.0985 17.8102 29.2617 22.8571 29.2617ZM22.5371 33.4839C22.1622 33.4839 21.8514 33.7665 21.8514 34.1262V38.4512C21.8514 38.6739 21.9794 38.8794 22.1897 38.9993L25.7737 41.0033C25.8834 41.0633 26.0022 41.0976 26.1302 41.0976C26.3588 41.0976 26.5874 40.9862 26.7154 40.7807C26.9074 40.4809 26.8068 40.087 26.4777 39.8986L23.2228 38.0829V34.1262C23.2228 33.7665 22.912 33.4839 22.5371 33.4839Z" fill="#00B0FF"/>
</svg>
